<svg xmlns:xlink="http://www.w3.org/1999/xlink" xmlns="http://www.w3.org/2000/svg" width="146" height="33" viewBox="0 0 146 33" fill="none"><path d="M26.3091 8.17773V26.6625H24.4824V8.17773H26.3091Z" fill="#101820"/><path d="M32.2529 26.6899V8.17773H33.5616L33.7524 10.5124C35.6336 8.97425 37.6511 8.17773 39.8595 8.17773C42.7495 8.17773 44.6307 9.02919 45.4758 10.7046C47.5752 9.00172 49.729 8.17773 51.8828 8.17773C55.9996 8.17773 58.0444 10.2377 58.0444 14.3302V26.6625H56.2178V14.3302C56.2178 11.3363 54.7728 9.85317 51.8828 9.85317C49.5654 9.85317 47.6842 10.6497 46.1574 12.2427V26.6899H44.3308V14.0555C44.3308 11.2539 42.8313 9.85317 39.8595 9.85317C37.7057 9.85317 35.77 10.6497 34.1069 12.2427V26.6899H32.2529Z" fill="#101820"/><path d="M63.6338 8.94679C65.7058 8.4524 68.0505 8.17773 70.6678 8.17773C76.5568 8.17773 79.5013 11.1166 79.5013 16.9669C79.5013 23.4489 76.5295 26.6625 70.6133 26.6625C69.1411 26.6625 67.4235 26.3604 65.4605 25.7836V32.8149H63.6338V8.94679ZM65.4605 23.9708C67.3144 24.6025 69.032 24.9321 70.586 24.9321C75.3299 24.9321 77.7019 22.2679 77.7019 16.9669C77.7019 12.2427 75.3299 9.88064 70.6133 9.88064C68.9775 9.88064 67.2599 10.018 65.4605 10.2926V23.9708Z" fill="#101820"/><path d="M99.3218 8.17773V26.6625H97.9859L97.7678 24.3004C95.6685 25.866 93.2965 26.6625 90.7065 26.6625C86.3715 26.6625 84.1904 24.3553 84.1904 19.7685V8.17773H86.0171V19.8234C86.0171 23.2841 87.5984 24.987 90.761 24.987C93.0784 24.987 95.314 24.218 97.4679 22.6524V8.17773H99.3218Z" fill="#101820"/><path d="M107.119 2.02527V26.6899H105.292V2.02527C105.265 2.02527 107.119 2.02527 107.119 2.02527Z" fill="#101820"/><path d="M112.708 25.811V24.0532C114.753 24.7673 116.743 25.0969 118.733 25.0969C122.578 25.0969 124.513 23.8609 124.513 21.389C124.513 19.3839 123.096 18.3952 120.233 18.3952H117.888C114.044 18.3952 112.108 16.7472 112.108 13.4512C112.108 9.93557 114.644 8.17773 119.742 8.17773C121.705 8.17773 123.695 8.47986 125.74 9.05665V10.8145C123.695 10.1004 121.705 9.77077 119.742 9.77077C115.871 9.77077 113.935 11.0068 113.935 13.4787C113.935 15.5936 115.244 16.6373 117.861 16.6373H120.206C124.295 16.6373 126.313 18.2304 126.313 21.389C126.313 24.9046 123.777 26.6625 118.679 26.6625C116.743 26.6899 114.753 26.3878 112.708 25.811Z" fill="#101820"/><path d="M138.445 8.17773C143.462 8.17773 145.97 10.9793 145.97 16.5824C145.97 16.9944 145.97 17.4064 145.943 17.8458H132.011C132.011 22.6799 134.547 25.0969 139.645 25.0969C141.744 25.0969 143.598 24.7948 145.207 24.218V25.811C143.598 26.3878 141.744 26.6899 139.645 26.6899C133.347 26.6899 130.185 23.5313 130.185 17.2416C130.185 11.199 132.938 8.17773 138.445 8.17773ZM132.011 16.1979H144.225C144.144 11.9131 142.235 9.74331 138.445 9.74331C134.383 9.74331 132.229 11.8857 132.011 16.1979Z" fill="#101820"/><path d="M26.3081 0.184937H24.4814V2.02517H26.3081V0.184937Z" fill="#E4002B"/><path d="M2.75245 23.9158H0.925781V25.756H2.75245V23.9158Z" fill="#E4002B"/><path d="M21.101 5.40344L18.3473 8.83672L14.694 13.4236L10.0864 19.1091V25.7559L7.14192 22.7895L5.50609 24.8495L4.57912 22.0754L1.82548 21.1416L3.87027 19.4661L0.925781 16.5273H7.49634L13.1672 11.8855L17.693 8.17753L21.101 5.40344Z" fill="#E4002B"/><path d="M17.1216 8.17737L12.5959 11.8853H3.68061L0 15.5932V8.17737H17.1216Z" fill="#E4002B"/><path d="M18.3466 9.44055V26.6893H11.0127L14.6933 22.9814V13.9999L18.3466 9.44055Z" fill="#E4002B"/></svg>