<svg xmlns="http://www.w3.org/2000/svg" version="1.1" xmlns:xlink="http://www.w3.org/1999/xlink" xmlns:svgjs="http://svgjs.dev/svgjs" width="100%" height="100%" viewBox="0 0 1000 600"><rect width="1000" height="600" x="0" y="0" fill="#141a46"/><g><circle r="166.66666666666666" cx="252.83097330729166" cy="275.0531735780378" fill="#ec8b5e" transform="matrix(1.4507174842045032,0,0,1.4507174842045034,0,-99.02442202021416)"/><path d="M275.5342162194148 272.78132953638834Q283.7247303186666 274.0667021870008 290.51030221841165 279.4473318872392Q297.2659817309332 284.8279615874776 301.2715616188884 292.80922897616455Q305.24724911962016 300.7606039776279 305.24724911962016 309.81799730636254L305.24724911962016 309.81799730636254Q305.24724911962016 321.20699683853377 299.41823361102854 330.354067328939Q293.6191104896605 339.5011378193442 282.52903482972476 344.792090357912Q271.438959169789 350.05315050925617 256.3731960091215 350.05315050925617L256.3731960091215 350.05315050925617L200.4146471266423 350.05315050925617L200.4146471266423 200.05315142149948L254.22094412902612 200.05315142149948Q269.525846387482 200.05315142149948 280.28710578795875 205.10496486227885Q291.0483651884355 210.15677830305825 296.42899488867386 218.76578582343964Q301.8096245889123 227.37479334382107 301.8096245889123 238.13605274429784L301.8096245889123 238.13605274429784Q301.8096245889123 251.4680574459996 294.575666880814 260.1966345152752Q287.3716015599393 268.9252115845508 275.5342162194148 272.78132953638834L275.5342162194148 272.78132953638834ZM220.02405314528883 216.19504052221464L220.02405314528883 264.8299545349249L252.93557147841364 264.8299545349249Q266.7159619884686 264.8299545349249 274.24884356880233 258.37319889463885Q281.78172514913604 251.91644325435283 281.78172514913604 240.49755133495802L281.78172514913604 240.49755133495802Q281.78172514913604 229.10855180278676 274.24884356880233 222.65179616250072Q266.7159619884686 216.19504052221464 252.51707805728398 216.19504052221464L252.51707805728398 216.19504052221464L220.02405314528883 216.19504052221464ZM254.66932993737933 333.911261408541Q269.2867072896936 333.911261408541 277.4772213889454 327.0360123471253Q285.66773548819714 320.130870898486 285.66773548819714 307.874992136832L285.66773548819714 307.874992136832Q285.66773548819714 295.3799742773895 277.05872796781574 288.1759089565148Q268.4497204474343 280.9718436356401 254.0116974184613 280.9718436356401L254.0116974184613 280.9718436356401L220.02405314528883 280.9718436356401L220.02405314528883 333.911261408541L254.66932993737933 333.911261408541Z " fill="#141a46" transform="matrix(1.4507174842045032,0,0,1.4507174842045034,0,-99.02442202021416)"/><path d="M603.1498003761594 243.93517586566588Q603.1498003761594 262.6777026548296 590.325966257258 275.0531509653778Q577.53202452558 287.42859927592616 551.2566161560826 287.42859927592616L551.2566161560826 287.42859927592616L522.4403548725837 287.42859927592616L522.4403548725837 350.05315050925617L502.8309488539372 350.05315050925617L502.8309488539372 200.05315142149948L551.2566161560826 200.05315142149948Q576.6651452960973 200.05315142149948 589.9074728361284 212.3090301831536Q603.1498003761594 224.56490894480768 603.1498003761594 243.93517586566588L603.1498003761594 243.93517586566588ZM551.2566161560826 271.286710175211Q567.6376443545862 271.286710175211 575.3797726454848 264.1723220160069Q583.1219009363833 257.08782624402636 583.1219009363833 243.93517586566588L583.1219009363833 243.93517586566588Q583.1219009363833 216.19504052221464 551.2566161560826 216.19504052221464L551.2566161560826 216.19504052221464L522.4403548725837 216.19504052221464L522.4403548725837 271.286710175211L551.2566161560826 271.286710175211Z " fill="#ec8b5e" transform="matrix(1.4507174842045032,0,0,1.4507174842045034,0,-99.02442202021416)"/></g></svg>